<?xml version="1.0" standalone="no"?>
<!DOCTYPE svg PUBLIC "-//W3C//DTD SVG 20010904//EN"
 "http://www.w3.org/TR/2001/REC-SVG-20010904/DTD/svg10.dtd">
<svg version="1.0" xmlns="http://www.w3.org/2000/svg"
 width="2148.000000pt" height="2148.000000pt" viewBox="0 0 1024.000000 1024.000000"
 preserveAspectRatio="xMidYMid meet">
<metadata>
Created by potrace 1.16, written by Peter Selinger 2001-2019
</metadata>
<g transform="translate(0.000000,1024.000000) scale(0.100000,-0.100000)"
fill="#00000" stroke="none">
<path d="M3690 7513 c-35 -14 -399 -177 -443 -200 -47 -23 -48 -25 -45 -65 5
-71 16 -70 204 16 238 108 378 179 382 193 2 7 -8 24 -22 38 -24 24 -45 29
-76 18z"/>
<path d="M3560 7271 c-152 -62 -270 -119 -270 -131 0 -13 98 -248 110 -265 4
-5 15 -30 25 -55 9 -25 19 -50 22 -57 2 -6 -5 -14 -16 -18 -32 -10 -26 -39 39
-179 64 -136 68 -150 47 -163 -21 -13 -47 -56 -47 -78 0 -11 6 -31 13 -45 12
-23 16 -24 97 -21 166 5 314 -52 418 -163 136 -146 178 -316 125 -506 -21 -76
-44 -119 -105 -191 l-52 -63 66 -60 c39 -37 78 -84 97 -120 17 -33 30 -60 28
-62 -1 -1 -39 -20 -84 -43 -46 -23 -83 -47 -83 -54 0 -6 29 -66 63 -132 l63
-120 38 -1 c44 0 49 -7 66 -84 6 -30 16 -71 21 -91 l9 -37 80 20 c91 23 90 21
60 118 -11 36 -20 70 -20 76 0 7 20 18 44 26 l44 15 49 -92 48 -92 140 63 c77
35 148 65 157 67 17 5 17 8 2 44 -23 55 -33 64 -54 53 -29 -15 -35 -12 -48 23
-16 46 -15 64 6 71 9 3 36 22 60 41 24 19 47 35 50 35 4 -1 29 -39 56 -85 l48
-84 47 30 c25 17 58 38 73 47 16 9 28 21 28 25 0 5 -27 41 -61 80 -86 102 -86
101 -44 133 19 14 35 31 35 37 0 19 -62 177 -70 177 -7 0 -159 -64 -236 -100
-58 -27 -265 -93 -271 -87 -3 3 106 61 243 129 136 68 250 129 252 136 5 18
-31 8 -146 -40 -52 -22 -95 -38 -97 -36 -1 2 -15 27 -29 57 l-26 54 29 44 c45
68 54 122 41 244 -12 109 -14 113 -200 529 -21 47 -61 137 -89 200 -61 135
-105 185 -176 195 -24 4 -54 4 -67 0 -18 -5 -219 -81 -327 -123 -20 -8 -3 18
18 26 13 6 229 120 238 127 2 1 -11 36 -28 78 l-31 76 -76 -35 c-85 -39 -333
-127 -339 -120 -6 6 129 80 272 150 66 32 121 60 123 61 3 3 -27 75 -32 75 -4
0 -98 -40 -182 -76 -11 -5 -40 55 -130 268 -27 65 -51 118 -54 117 -3 0 -48
-17 -100 -38z m741 -738 c16 -17 79 -143 155 -313 69 -157 135 -303 145 -325
21 -49 38 -209 26 -256 -10 -39 -37 -71 -83 -98 l-32 -19 -56 136 c-192 471
-339 860 -332 878 6 16 74 34 116 29 20 -3 45 -16 61 -32z"/>
<path d="M3483 6105 c-103 -32 -194 -113 -241 -215 -22 -47 -26 -70 -26 -150
-1 -88 2 -101 32 -162 41 -85 128 -167 209 -199 45 -18 79 -23 153 -23 87 -1
101 2 162 31 324 153 301 603 -36 716 -60 20 -192 22 -253 2z m275 -121 c89
-37 159 -157 138 -239 -6 -24 -62 -95 -75 -95 -3 0 -6 28 -7 63 -1 66 -15 103
-60 156 -50 60 -157 97 -232 80 -41 -9 -32 3 23 30 50 25 159 28 213 5z"/>
<path d="M3057 5536 c-157 -236 -237 -563 -224 -911 17 -465 210 -893 556
-1233 87 -86 246 -214 320 -258 17 -10 31 -22 31 -27 0 -5 -22 -69 -50 -142
-55 -149 -131 -388 -154 -486 -8 -35 -18 -71 -21 -81 -6 -15 99 -16 1520 -13
840 2 1529 6 1531 8 3 2 -152 139 -418 370 l-78 67 -345 0 -344 0 -113 96
c-62 53 -183 155 -268 228 -85 73 -202 170 -259 217 l-105 84 570 5 c503 4
572 7 599 21 113 63 126 220 26 314 l-32 30 -377 6 c-619 11 -1157 10 -1209
-1 -46 -10 -117 -64 -142 -108 -12 -21 -36 -10 -146 63 -237 158 -408 373
-491 617 -80 235 -79 524 2 750 14 38 24 71 22 72 -2 2 -40 22 -86 46 -110 57
-188 135 -241 240 l-39 79 -35 -53z m1402 -2138 c53 -26 104 -75 133 -131 34
-64 32 -173 -4 -248 -48 -97 -138 -149 -256 -149 -85 0 -151 29 -209 93 -39
42 -73 121 -73 168 0 37 41 148 69 187 74 101 222 136 340 80z m499 -381 c65
-52 171 -140 237 -195 l120 -102 345 0 345 -1 99 -85 99 -85 -219 6 c-398 11
-632 25 -932 55 -163 17 -373 35 -467 41 -327 20 -336 23 -104 37 113 7 298
15 411 19 l205 6 -42 56 c-99 132 -234 341 -219 341 3 0 58 -42 122 -93z"/>
<path d="M4239 3247 c-21 -14 -41 -41 -53 -70 -20 -47 -20 -47 0 -94 60 -144
274 -111 274 42 0 115 -127 185 -221 122z"/>
<path d="M3137 2321 c-62 -31 -86 -130 -49 -201 12 -22 35 -44 63 -58 l44 -22
1945 2 c1925 3 1945 3 1979 23 54 32 76 69 76 128 0 62 -27 106 -79 131 -32
15 -192 16 -1991 15 -1761 -2 -1960 -4 -1988 -18z"/>
</g>
</svg>
